<svg xmlns="http://www.w3.org/2000/svg" xmlns:xlink="http://www.w3.org/1999/xlink" width="360" height="360" viewBox="0 0 360 360">
  <defs>
    <clipPath id="clip-dribbble-light_1">
      <rect width="360" height="360"/>
    </clipPath>
  </defs>
  <g id="dribbble-light_1" data-name="dribbble-light – 1" clip-path="url(#clip-dribbble-light_1)">
    <path id="Path_19" data-name="Path 19" d="M-9829.245,786.754a159.519,159.519,0,0,1-30.034-9.323,160,160,0,0,1-27.178-14.753,161.254,161.254,0,0,1-23.68-19.536,161.146,161.146,0,0,1-19.536-23.679,159.951,159.951,0,0,1-14.753-27.18,158.961,158.961,0,0,1-9.323-30.034A161.145,161.145,0,0,1-9957,630a161.163,161.163,0,0,1,3.251-32.245,159.018,159.018,0,0,1,9.323-30.034,159.834,159.834,0,0,1,14.753-27.178,161.035,161.035,0,0,1,19.536-23.682,161.256,161.256,0,0,1,23.68-19.536,160,160,0,0,1,27.178-14.753,159.334,159.334,0,0,1,30.034-9.323A161.235,161.235,0,0,1-9797,470a161.223,161.223,0,0,1,32.246,3.251,159.33,159.33,0,0,1,30.033,9.323,159.892,159.892,0,0,1,27.179,14.753,161.146,161.146,0,0,1,23.679,19.536,161.042,161.042,0,0,1,19.536,23.682,159.77,159.77,0,0,1,14.754,27.178,159.279,159.279,0,0,1,9.32,30.034A161.02,161.02,0,0,1-9637,630a161,161,0,0,1-3.251,32.246,159.223,159.223,0,0,1-9.32,30.034,159.888,159.888,0,0,1-14.754,27.18,161.022,161.022,0,0,1-19.536,23.679,161.144,161.144,0,0,1-23.679,19.536,160.07,160.07,0,0,1-27.179,14.753,159.333,159.333,0,0,1-30.033,9.323A161.225,161.225,0,0,1-9797,790.005,161.237,161.237,0,0,1-9829.245,786.754Zm-41-48.123a130.88,130.88,0,0,0,22.25,12.077,130.246,130.246,0,0,0,24.591,7.634A131.936,131.936,0,0,0-9797,761a131.88,131.88,0,0,0,26.4-2.661,130.277,130.277,0,0,0,24.592-7.634q.457-.194.915-.391c-1.814-9.646-10.65-54.085-27.608-100.391a127.24,127.24,0,0,0-16.368,4.94c-45.411,17.247-78.51,63.011-88.614,78.347Q-9874.057,736.054-9870.244,738.631Zm148.271-1.229a131.958,131.958,0,0,0,17.6-14.769,131.8,131.8,0,0,0,16-19.386,130.908,130.908,0,0,0,12.077-22.253,130.271,130.271,0,0,0,7.634-24.591q.333-1.626.624-3.263c-13.7-3.205-46.134-9.525-79.8-6.935A794.155,794.155,0,0,1-9721.974,737.4ZM-9928,630a131.906,131.906,0,0,0,2.661,26.4,130.265,130.265,0,0,0,7.632,24.591,130.918,130.918,0,0,0,12.079,22.253,131.59,131.59,0,0,0,9.466,12.361c9.442-13.11,49.6-65.5,101.277-84.594,4.294-1.587,8.667-2.943,13.086-4.1q-1.049-2.452-2.128-4.888-3.166-7.14-6.574-14.1c-52.889,15.294-121.877,16.633-137.392,16.736Q-9928,627.331-9928,630Zm262-.263a131.95,131.95,0,0,0-2.661-26.138,130.191,130.191,0,0,0-7.634-24.589,130.813,130.813,0,0,0-12.077-22.253q-2.927-4.333-6.206-8.439c-10.2,11.583-34.314,35.32-72.359,51.328q2.4,5.026,4.7,10.185,2.779,6.242,5.377,12.622a217.779,217.779,0,0,1,22.978-1.175A292.621,292.621,0,0,1-9666,629.739Zm-204.24-108.363a131.809,131.809,0,0,0-19.389,16,131.87,131.87,0,0,0-16,19.389,130.823,130.823,0,0,0-12.079,22.253,130.258,130.258,0,0,0-6.532,19.7c24.01-.539,78.874-2.909,121.991-13.3a625.68,625.68,0,0,0-48.906-74.722A131.125,131.125,0,0,0-9870.244,521.376Zm92.324,56.741c40.467-14.889,62.009-37.981,68.352-45.667a131.859,131.859,0,0,0-14.191-11.075,130.92,130.92,0,0,0-22.25-12.08,130.27,130.27,0,0,0-24.592-7.632A131.892,131.892,0,0,0-9797,499a131.933,131.933,0,0,0-26.4,2.661q-1.915.392-3.82.842A556.613,556.613,0,0,1-9777.92,578.117Z" transform="translate(9977.001 -450.003)" fill="#020e26"/>
  </g>
</svg>
