<svg xmlns="http://www.w3.org/2000/svg" xmlns:xlink="http://www.w3.org/1999/xlink" width="360" height="360" viewBox="0 0 360 360">
  <defs>
    <clipPath id="clip-gmail-light_1">
      <rect width="360" height="360"/>
    </clipPath>
  </defs>
  <g id="gmail-light_1" data-name="gmail-light – 1" clip-path="url(#clip-gmail-light_1)">
    <path id="Path_20" data-name="Path 20" d="M-10320,770a66.606,66.606,0,0,1-26.081-5.266,67.128,67.128,0,0,1-11.381-6.178,67.528,67.528,0,0,1-9.916-8.18,67.461,67.461,0,0,1-8.181-9.916,66.827,66.827,0,0,1-6.178-11.381A66.586,66.586,0,0,1-10387,703V537a66.577,66.577,0,0,1,5.266-26.078,66.827,66.827,0,0,1,6.178-11.381,67.461,67.461,0,0,1,8.181-9.916,67.528,67.528,0,0,1,9.916-8.18,66.868,66.868,0,0,1,11.381-6.178A66.606,66.606,0,0,1-10320,470h166a66.6,66.6,0,0,1,26.078,5.266,67.062,67.062,0,0,1,11.382,6.178,67.682,67.682,0,0,1,9.916,8.18,67.689,67.689,0,0,1,8.18,9.916,67.022,67.022,0,0,1,6.176,11.381A66.525,66.525,0,0,1-10087,537V703a66.534,66.534,0,0,1-5.266,26.078,67.022,67.022,0,0,1-6.176,11.381,67.691,67.691,0,0,1-8.18,9.916,67.682,67.682,0,0,1-9.916,8.18,67.249,67.249,0,0,1-11.382,6.178A66.6,66.6,0,0,1-10154,770Zm-36-223V693a45.708,45.708,0,0,0,3.615,17.906,45.8,45.8,0,0,0,9.859,14.622,45.8,45.8,0,0,0,14.621,9.859A45.714,45.714,0,0,0-10310,739h146a45.727,45.727,0,0,0,17.905-3.616,45.812,45.812,0,0,0,14.622-9.859,45.849,45.849,0,0,0,9.858-14.622A45.706,45.706,0,0,0-10118,693V547a45.868,45.868,0,0,0-1.984-13.417l-84.64,92.754c-19.73,18.584-45.465,16.034-62.523,0L-10355,537.4A46.107,46.107,0,0,0-10356,547Zm98.823,40.57c13.232,12.27,30.8,13.381,43.283-.13l71.142-81.252q-1.633-.851-3.342-1.574A45.724,45.724,0,0,0-10164,501h-146a45.711,45.711,0,0,0-17.906,3.613,45.985,45.985,0,0,0-4.635,2.274Z" transform="translate(10416.999 -439.999)" fill="#020e26"/>
  </g>
</svg>
