<svg xmlns="http://www.w3.org/2000/svg" xmlns:xlink="http://www.w3.org/1999/xlink" width="360" height="360" viewBox="0 0 360 360">
  <defs>
    <clipPath id="clip-insta-light_1">
      <rect width="360" height="360"/>
    </clipPath>
  </defs>
  <g id="insta-light_1" data-name="insta-light – 1" clip-path="url(#clip-insta-light_1)">
    <path id="Path_18" data-name="Path 18" d="M-9460,770a66.545,66.545,0,0,1-26.078-5.267,67.037,67.037,0,0,1-11.384-6.176,67.686,67.686,0,0,1-9.915-8.182,67.586,67.586,0,0,1-8.182-9.915,66.993,66.993,0,0,1-6.176-11.381A66.537,66.537,0,0,1-9527,703V537a66.548,66.548,0,0,1,5.268-26.081,66.993,66.993,0,0,1,6.176-11.381,67.588,67.588,0,0,1,8.182-9.915,67.842,67.842,0,0,1,9.915-8.182,66.93,66.93,0,0,1,11.384-6.176A66.543,66.543,0,0,1-9460,470h166a66.536,66.536,0,0,1,26.078,5.265,67.042,67.042,0,0,1,11.384,6.176,67.842,67.842,0,0,1,9.915,8.182,67.656,67.656,0,0,1,8.182,9.915,66.993,66.993,0,0,1,6.176,11.381A66.6,66.6,0,0,1-9227,537V703a66.586,66.586,0,0,1-5.265,26.078,66.993,66.993,0,0,1-6.176,11.381,67.658,67.658,0,0,1-8.182,9.915,67.686,67.686,0,0,1-9.915,8.182,67.037,67.037,0,0,1-11.384,6.176A66.538,66.538,0,0,1-9294,770Zm-7.907-265.385a45.837,45.837,0,0,0-14.62,9.858,45.854,45.854,0,0,0-9.858,14.621A45.723,45.723,0,0,0-9496,547V693a45.732,45.732,0,0,0,3.615,17.906,45.854,45.854,0,0,0,9.858,14.621,45.883,45.883,0,0,0,14.62,9.86A45.733,45.733,0,0,0-9450,739h146a45.712,45.712,0,0,0,17.906-3.615,45.856,45.856,0,0,0,14.623-9.86,45.891,45.891,0,0,0,9.858-14.621A45.738,45.738,0,0,0-9258,693V547a45.729,45.729,0,0,0-3.612-17.906,45.892,45.892,0,0,0-9.858-14.621,45.81,45.81,0,0,0-14.623-9.858A45.669,45.669,0,0,0-9304,501h-146A45.69,45.69,0,0,0-9467.906,504.615Zm75.895,188.37a74.09,74.09,0,0,1-13.985-4.34,74.479,74.479,0,0,1-12.655-6.869,75.1,75.1,0,0,1-11.024-9.1,74.978,74.978,0,0,1-9.1-11.025A74.345,74.345,0,0,1-9445.644,649a73.872,73.872,0,0,1-4.342-13.985A75.1,75.1,0,0,1-9451.5,620a75.091,75.091,0,0,1,1.514-15.013A73.872,73.872,0,0,1-9445.644,591a74.347,74.347,0,0,1,6.867-12.655,74.971,74.971,0,0,1,9.1-11.025,75.1,75.1,0,0,1,11.024-9.1A74.475,74.475,0,0,1-9406,551.353a74.085,74.085,0,0,1,13.985-4.34A75.052,75.052,0,0,1-9377,545.5a75.044,75.044,0,0,1,15.016,1.513,74.076,74.076,0,0,1,13.984,4.34,74.549,74.549,0,0,1,12.655,6.869,75.05,75.05,0,0,1,11.024,9.1,74.9,74.9,0,0,1,9.1,11.025A74.493,74.493,0,0,1-9308.353,591a73.9,73.9,0,0,1,4.34,13.985A75.091,75.091,0,0,1-9302.5,620a75.1,75.1,0,0,1-1.514,15.015,73.9,73.9,0,0,1-4.34,13.985,74.582,74.582,0,0,1-6.869,12.655,74.9,74.9,0,0,1-9.1,11.025,75.049,75.049,0,0,1-11.024,9.1A74.554,74.554,0,0,1-9348,688.645a74.08,74.08,0,0,1-13.984,4.34A75.059,75.059,0,0,1-9377,694.5,75.052,75.052,0,0,1-9392.012,692.984Zm-3.551-117.568a48.69,48.69,0,0,0-15.541,10.477,48.71,48.71,0,0,0-10.478,15.541,48.544,48.544,0,0,0-3.842,19.03,48.564,48.564,0,0,0,3.842,19.032,48.7,48.7,0,0,0,10.478,15.539,48.735,48.735,0,0,0,15.541,10.48,48.589,48.589,0,0,0,19.029,3.842,48.607,48.607,0,0,0,19.032-3.842,48.726,48.726,0,0,0,15.539-10.48,48.7,48.7,0,0,0,10.478-15.539,48.6,48.6,0,0,0,3.842-19.032,48.578,48.578,0,0,0-3.842-19.03,48.71,48.71,0,0,0-10.478-15.541,48.681,48.681,0,0,0-15.539-10.477,48.564,48.564,0,0,0-19.032-3.842A48.546,48.546,0,0,0-9395.562,575.416ZM-9319,541a20,20,0,0,1,20-20,20,20,0,0,1,20,20,20,20,0,0,1-20,20A20,20,0,0,1-9319,541Z" transform="translate(9556.999 -439.999)" fill="#020e26"/>
  </g>
</svg>
