<svg xmlns="http://www.w3.org/2000/svg" xmlns:xlink="http://www.w3.org/1999/xlink" width="100" height="100" viewBox="0 0 100 100">
  <defs>
    <clipPath id="clip-moon_1">
      <rect width="100" height="100"/>
    </clipPath>
  </defs>
  <g id="moon_1" data-name="moon – 1" clip-path="url(#clip-moon_1)">
    <g id="Group_33" data-name="Group 33">
      <path id="Path_142" data-name="Path 142" d="M12383.414,8181a23.617,23.617,0,0,1-9.113-1.808,23.359,23.359,0,0,1-7.443-4.93,22.919,22.919,0,0,1-5.018-7.312,22.681,22.681,0,0,1,0-17.906,22.893,22.893,0,0,1,5.018-7.311,23.34,23.34,0,0,1,7.443-4.93,23.624,23.624,0,0,1,9.113-1.808,24.538,24.538,0,0,1,5.724.69,1.159,1.159,0,0,1,.254,2.1,22.662,22.662,0,0,0-3.372,2.2,23.29,23.29,0,0,0-4.691,4.921,22.677,22.677,0,0,0,0,26.176,23.3,23.3,0,0,0,4.691,4.922,24.293,24.293,0,0,0,3.745,2.394.993.993,0,0,1-.2,1.8A23.208,23.208,0,0,1,12383.414,8181Z" transform="translate(-14469.73 3032.575) rotate(-45)" fill="#020e26"/>
    </g>
  </g>
</svg>
