<svg xmlns="http://www.w3.org/2000/svg" xmlns:xlink="http://www.w3.org/1999/xlink" width="100" height="100" viewBox="0 0 100 100">
  <defs>
    <clipPath id="clip-sun_1">
      <rect width="100" height="100"/>
    </clipPath>
  </defs>
  <g id="sun_1" data-name="sun – 1" clip-path="url(#clip-sun_1)">
    <path id="Union_2" data-name="Union 2" d="M12563,8202.5v-10a2.5,2.5,0,1,1,5,0v10a2.5,2.5,0,1,1-5,0Zm-22.395-7.4a2.5,2.5,0,0,1,0-3.535l7.07-7.074a2.5,2.5,0,0,1,3.536,3.535l-7.071,7.074a2.5,2.5,0,0,1-3.535,0Zm45.608-.354-7.07-7.074a2.5,2.5,0,0,1,3.535-3.535l7.07,7.074a2.5,2.5,0,0,1-3.535,3.536ZM12552,8170a13,13,0,1,1,13,13A13,13,0,0,1,12552,8170Zm35.5,2.5a2.5,2.5,0,1,1,0-5h10a2.5,2.5,0,1,1,0,5Zm-55,0a2.5,2.5,0,1,1,0-5h10a2.5,2.5,0,1,1,0,5Zm47-16.289a2.5,2.5,0,0,1,0-3.535l7.071-7.071a2.5,2.5,0,0,1,3.535,3.535l-7.071,7.071a2.5,2.5,0,0,1-3.535,0Zm-32.175-.354-7.071-7.071a2.5,2.5,0,0,1,3.536-3.535l7.07,7.07a2.5,2.5,0,1,1-3.535,3.536ZM12563,8147.5v-10a2.5,2.5,0,1,1,5,0v10a2.5,2.5,0,1,1-5,0Z" transform="translate(-12515 -8120)" fill="#fcfcff"/>
  </g>
</svg>
